<svg xmlns="http://www.w3.org/2000/svg" version="1.1" xmlns:xlink="http://www.w3.org/1999/xlink" preserveAspectRatio="none" x="0px" y="0px" width="418px" height="418px" viewBox="0 0 418 418">
<defs>
<g id="Layer0_0_FILL">
<path fill="#212121" stroke="none" d="
M 355.35 131.8
Q 344 110.6 325.65 92.3 277.35 44 209 44 140.6 44 92.3 92.3 44 140.65 44 209 44 261.65 72.7 302.4 81.2 314.55 92.3 325.65 121.9 355.3 159.15 366.75 182.6 374 209 374 235.4 374 258.9 366.75 296.05 355.3 325.65 325.65 336.75 314.55 345.3 302.4 350.9 294.5 355.35 286.15 374 251.45 374 209 374 166.5 355.35 131.8
M 208.8 208.45
L 289.2 288.85 208.8 208.45 128.35 288.85 208.8 208.45 128.35 128 208.8 208.45 289.2 128 208.8 208.45 Z"/>
</g>

<path id="Layer0_0_1_STROKES" stroke="#FFFFFF" stroke-width="30" stroke-linejoin="round" stroke-linecap="round" fill="none" d="
M 374 209
Q 374 251.45 355.35 286.15 350.9 294.5 345.3 302.4 336.75 314.55 325.65 325.65 296.05 355.3 258.9 366.75 235.4 374 209 374 182.6 374 159.15 366.75 121.9 355.3 92.3 325.65 81.2 314.55 72.7 302.4 44 261.65 44 209 44 140.65 92.3 92.3 140.6 44 209 44 277.35 44 325.65 92.3 344 110.6 355.35 131.8 374 166.5 374 209 Z
M 289.2 128
L 208.8 208.45 289.2 288.85
M 128.35 128
L 208.8 208.45 128.35 288.85"/>
</defs>

<g transform="matrix( 1, 0, 0, 1, 0,0) ">
<use xlink:href="#Layer0_0_FILL"/>

<use xlink:href="#Layer0_0_1_STROKES"/>
</g>
</svg>
