<?xml version="1.0" encoding="UTF-8" standalone="no"?> <svg xmlns:inkscape="http://www.inkscape.org/namespaces/inkscape" xmlns:sodipodi="http://sodipodi.sourceforge.net/DTD/sodipodi-0.dtd" xmlns="http://www.w3.org/2000/svg" xmlns:svg="http://www.w3.org/2000/svg" width="48" height="48" id="svg4" sodipodi:docname="download.svg" inkscape:version="1.1 (c68e22c387, 2021-05-23)"> <defs id="defs8"></defs> <path d="m 24.031,46.146 c 12.251,0 22.18,-9.915 22.18,-22.146 0,-12.232 -9.929,-22.146 -22.18,-22.146 -12.247,0 -22.173,9.914 -22.173,22.146 0,12.23 9.926,22.146 22.173,22.146 z M 24.031,0 c 13.279,0 24.037,10.746 24.037,24 0,13.254 -10.76,24 -24.037,24 C 10.761,48 0,37.254 0,24 0,10.746 10.76,0 24.031,0 Z m 0,41 c -0.79,0 -1.266,-0.527 -1.295,-1.248 -0.173,0.325 -0.396,0.545 -0.732,0.612 -0.333957,0.06237 -0.67896,0.02264 -0.99,-0.114 -0.307107,-0.12286 -0.557156,-0.356144 -0.701,-0.654 -0.15,-0.304 -0.1,-0.617 0.007,-0.982 -0.372,0.53 -1,0.668 -1.553,0.412 -0.758,-0.352 -1.034,-0.991 -0.723,-1.72 0.936,-2.208 1.867,-4.376 2.807,-6.581 0.085,-0.2 0.157,-0.407 0.251,-0.606 0.084,-0.177 0.137,-0.307 0.216,-0.414 0.05978,-0.08029 0.1349,-0.147932 0.221,-0.199 -1.454,0.159 -2.153,0.728 -2.538,0.98 -0.102,0.068 -0.096,0.078 -0.489,-0.044 -0.174274,-0.05057 -0.361453,-0.03045 -0.521,0.056 -0.178135,0.09425 -0.348651,0.202245 -0.51,0.323 -0.521,0.404 -1.053,0.794 -1.546,1.23 -0.23,0.204 -0.56,0.551 -0.515,0.865 0.036,0.291 0.751,0.965 0.965,1.166 0.507,0.476 -0.26,1.372 -1.282,1.287 0.272,-0.284 0.336,-0.525 0.301,-0.739 -0.101,-0.001 -0.296,0.018 -0.48,-0.146 -0.22,-0.197 -0.122,-0.779 -0.326,-0.977 -0.36,-0.348 -1.537,-0.38 -2.24,-0.41 -0.296,-0.012 -0.605,-0.091 -0.583,-0.548 -0.447,0.03 -0.54,0.36 -0.54,0.658 -0.385,-0.216 -0.714,-1.252 0.706,-1.487 -0.24,-0.217 -0.638,-0.296 -0.883,-0.02 -0.231,-0.38 0.353,-1.127 1.404,-0.706 -0.003,-0.003 0.473,-0.621 1.894,0.96 0.179,-0.134 0.357,-0.266 0.52,-0.416 0.55,-0.497 1.936,-1.843 1.936,-1.843 0,-0.757 0.114,-2.223 1.121,-3.102 0.429,-0.375 0.84,-0.574 1.748,-0.737 0,0 -0.439,-0.683 -0.508,-0.952 -0.792,0.786 -2.383,1.021 -2.383,-0.305 -1.297,1.287 -2.502,0.593 -2.502,-0.215 -0.04492,0.409485 -0.13789,0.812258 -0.277,1.2 -0.163,0.434 -0.757,2.097 -2.29,2.097 -0.035,0.578 -0.038,2.479 -1.87,2.905 -0.079,0.018 -0.18,0.045 -0.23,0.105 -0.74,0.914 -3.816,1.874 -4.192,1.615 0.238,-0.17 0.615,-0.395 0.675,-1.468 0.038,-0.708 0.116,-4.382 0.116,-9.557 0,-1.832 0.199,-7.766 6.11,-8.593 0.897,-0.125 1.779,-0.06 2.543,0.503 1.04,0.772 1.552,2.07 0.94,3.541 -0.02,0.053 -0.035,0.105 -0.063,0.152 -0.208,0.35 -0.123,0.652 0.148,0.92 0.493,0.487 1.068,0.816 1.76,0.896 0.436,0.05 0.798,-0.141 1.087,-0.439 0.663,-0.678 1.113,-1.475 1.276,-2.411 0.308,-1.778 -0.17,-2.67 -0.197,-2.726 -0.481,-0.958 -1.502,-1.66 -2.686,-1.76 -0.542,-1.006 -2.098,-0.608 -2.098,-0.608 -0.39,0.084 -0.527,0.194 -0.624,0.385 0,0 -0.683,-1.032 -0.04,-1.446 0.645,-0.415 2.084,-0.586 2.084,-0.586 0,-0.672 1.12,-1.195 3.143,-0.836 2.447,0.434 2.973,-0.516 2.973,-0.516 0.103,1.162 -0.793,1.762 -1.08,1.924 0.929,1 2.226,2.998 2.535,5.833 0.31,-2.835 1.607,-4.833 2.535,-5.833 -0.287,-0.162 -1.182,-0.762 -1.08,-1.924 0,0 0.526,0.95 2.973,0.516 2.024,-0.359 3.144,0.164 3.144,0.836 0,0 1.439,0.17 2.083,0.586 0.644,0.414 -0.04,1.446 -0.04,1.446 -0.097,-0.191 -0.234,-0.3 -0.624,-0.385 0,0 -1.556,-0.398 -2.098,0.608 -1.184,0.1 -2.204,0.802 -2.685,1.76 -0.027,0.056 -0.477,0.94 -0.198,2.726 0.147,0.938 0.613,1.733 1.277,2.411 0.289,0.298 0.65,0.488 1.087,0.439 0.691,-0.08 1.267,-0.41 1.76,-0.896 0.27,-0.268 0.355,-0.57 0.148,-0.92 -0.029,-0.047 -0.044,-0.099 -0.063,-0.152 -0.613,-1.47 -0.1,-2.77 0.94,-3.54 0.763,-0.563 1.646,-0.63 2.542,-0.504 5.912,0.827 6.11,6.761 6.11,8.593 0,5.175 0.079,8.849 0.116,9.557 0.06,1.073 0.437,1.298 0.676,1.468 -0.377,0.26 -3.453,-0.701 -4.193,-1.615 -0.05,-0.06 -0.15,-0.087 -0.229,-0.105 -1.832,-0.426 -1.835,-2.327 -1.87,-2.905 -1.533,0 -2.128,-1.663 -2.291,-2.097 -0.139119,-0.38774 -0.232093,-0.790513 -0.277,-1.2 0,0.808 -1.204,1.502 -2.501,0.215 0,1.326 -1.592,1.091 -2.383,0.305 -0.07,0.269 -0.51,0.952 -0.51,0.952 0.91,0.163 1.32,0.362 1.75,0.737 1.006,0.88 1.12,2.345 1.12,3.102 0,0 1.387,1.346 1.937,1.843 0.162,0.15 0.34,0.282 0.52,0.416 1.42,-1.581 1.896,-0.963 1.893,-0.96 1.051,-0.421 1.635,0.327 1.405,0.705 -0.245,-0.275 -0.644,-0.196 -0.884,0.02 1.42,0.236 1.091,1.272 0.707,1.488 0,-0.298 -0.094,-0.628 -0.54,-0.658 0.022,0.457 -0.288,0.536 -0.584,0.548 -0.703,0.03 -1.88,0.062 -2.24,0.41 -0.204,0.198 -0.105,0.78 -0.326,0.977 -0.183,0.164 -0.378,0.145 -0.48,0.146 -0.034,0.214 0.03,0.455 0.302,0.74 -1.023,0.084 -1.79,-0.812 -1.282,-1.288 0.212,-0.2 0.928,-0.875 0.964,-1.166 0.046,-0.314 -0.285,-0.661 -0.515,-0.865 -0.493,-0.436 -1.024,-0.826 -1.546,-1.23 -0.161349,-0.120755 -0.331865,-0.228749 -0.51,-0.323 -0.159269,-0.08618 -0.346034,-0.106293 -0.52,-0.056 -0.393,0.122 -0.387,0.112 -0.49,0.045 -0.385,-0.253 -1.083,-0.822 -2.538,-0.98 0.099,0.06 0.166,0.124 0.221,0.198 0.08,0.107 0.133,0.237 0.216,0.414 0.094,0.2 0.167,0.406 0.252,0.606 0.94,2.205 1.87,4.373 2.806,6.58 0.312,0.73 0.035,1.37 -0.722,1.72 -0.554,0.257 -1.182,0.12 -1.553,-0.41 0.107,0.364 0.157,0.677 0.006,0.981 -0.143364,0.297848 -0.393109,0.531181 -0.7,0.654 -0.31104,0.136643 -0.656043,0.176371 -0.99,0.114 -0.337,-0.067 -0.56,-0.287 -0.733,-0.612 -0.029,0.721 -0.505,1.249 -1.295,1.249 z" fill="#f2f3f5" fill-rule="evenodd" id="path2" sodipodi:nodetypes="sssssssssscccccccccccccccccccccccccccccccccccccccccccscccccccccccccccccccccccccccccccccccscccccccccccccccccccccccccccccccccccccccccccc" style="fill:#d52b1e"></path> </svg>