<?xml version="1.0" encoding="UTF-8" standalone="no"?> <svg xmlns:inkscape="http://www.inkscape.org/namespaces/inkscape" xmlns:sodipodi="http://sodipodi.sourceforge.net/DTD/sodipodi-0.dtd" xmlns="http://www.w3.org/2000/svg" xmlns:svg="http://www.w3.org/2000/svg" width="24px" height="24px" viewBox="0 0 24 24" fill="none" id="svg4" sodipodi:docname="menu-svgrepo-com.svg" inkscape:version="1.1 (c68e22c387, 2021-05-23)"> <defs id="defs8"></defs> <path d="M4 7a1 1 0 0 1 1-1h14a1 1 0 1 1 0 2H5a1 1 0 0 1-1-1zm0 5a1 1 0 0 1 1-1h14a1 1 0 1 1 0 2H5a1 1 0 0 1-1-1zm0 5a1 1 0 0 1 1-1h14a1 1 0 1 1 0 2H5a1 1 0 0 1-1-1z" fill="#0D0D0D" id="path2" style="fill:#d52b1e;fill-opacity:1"></path> </svg>