<?xml version="1.0" encoding="UTF-8" standalone="no"?>
<svg
   xmlns:dc="http://purl.org/dc/elements/1.1/"
   xmlns:cc="http://creativecommons.org/ns#"
   xmlns:rdf="http://www.w3.org/1999/02/22-rdf-syntax-ns#"
   xmlns:svg="http://www.w3.org/2000/svg"
   xmlns="http://www.w3.org/2000/svg"
   xmlns:xlink="http://www.w3.org/1999/xlink"
   xmlns:sodipodi="http://sodipodi.sourceforge.net/DTD/sodipodi-0.dtd"
   xmlns:inkscape="http://www.inkscape.org/namespaces/inkscape"
   version="1.1"
   preserveAspectRatio="none"
   x="0px"
   y="0px"
   width="2600px"
   height="1800px"
   viewBox="0 0 2600 1800"
   id="svg2"
   inkscape:version="0.91 r13725"
   sodipodi:docname="ИР_лого_vert.svg"
   inkscape:export-filename="C:\Users\Диман\Desktop\ИР\ИР_лого_vert.png"
   inkscape:export-xdpi="346"
   inkscape:export-ydpi="346">
  <metadata
     id="metadata25">
    <rdf:RDF>
      <cc:Work
         rdf:about="">
        <dc:format>image/svg+xml</dc:format>
        <dc:type
           rdf:resource="http://purl.org/dc/dcmitype/StillImage" />
      </cc:Work>
    </rdf:RDF>
  </metadata>
  <sodipodi:namedview
     pagecolor="#ffffff"
     bordercolor="#666666"
     borderopacity="1"
     objecttolerance="10"
     gridtolerance="10"
     guidetolerance="10"
     inkscape:pageopacity="0"
     inkscape:pageshadow="2"
     inkscape:window-width="1842"
     inkscape:window-height="873"
     id="namedview23"
     showgrid="false"
     inkscape:zoom="0.13111111"
     inkscape:cx="350.42373"
     inkscape:cy="900"
     inkscape:window-x="-32000"
     inkscape:window-y="-32000"
     inkscape:window-maximized="0"
     inkscape:current-layer="svg2" />
  <defs
     id="defs4">
    <g
       id="Layer0_0_MEMBER_0_FILL">
      <path
         fill="#FF0000"
         stroke="none"
         d=" M 866.7 759 Q 866.7 732.5 846.4 713.75 826.1 695 797.4 695 L 271.1 695 Q 242.45 695 222.15 713.75 201.85 732.5 201.85 759 L 201.85 1060.2 Q 201.85 1086.7 222.15 1105.45 242.45 1124.2 271.1 1124.2 L 797.4 1124.2 Q 826.1 1124.2 846.4 1105.45 866.7 1086.7 866.7 1060.2 L 866.7 759 M 674.45 785.15 L 674.45 785.25 776.15 785.25 Q 777.35 785.4 778.6 785.65 788.45 787.65 797.95 795.8 807.5 804 811.05 813.5 812.5 817.3 812.65 820.45 812.7 821.2 812.65 821.9 812.65 821.95 812.65 822.05 L 812.4 971.25 Q 812.6 973.2 812.55 975.3 812.45 976.05 812.4 976.8 811.45 986.85 804.2 995.55 796.4 1004.95 785.85 1007.25 784.9 1007.45 783.95 1007.6 779.75 1008.45 776.5 1007.9 L 677.65 1007.9 Q 675.8 1008.1 674.45 1009.1 L 674.45 1071.15 566 1071.15 566 878.7 608.2 878.7 608.25 878.65 566.15 785.15 674.45 785.15 M 402.8 785.25 L 511.75 785.25 469.65 878.7 511.75 878.7 511.75 1008.25 402.8 1008.25 402.8 1007.95 292.35 1007.9 Q 291.4 1007.95 290.45 1007.95 289.5 1007.95 288.6 1007.9 277 1007.3 267.3 998.95 256.95 990.05 254.8 977.35 254.45 975.35 254.4 973.45 L 256.25 785.25 365.5 785.25 364.8 843.45 364.7 953.4 Q 366.35 956.4 370.6 958.75 376.65 962.1 384.55 962.1 392.35 962.1 397.35 958.75 401.25 956.2 401.65 952.85 L 402.8 890.7 402.8 785.25 M 706.05 836.35 Q 699.9 833.05 692.1 833.05 684.2 833.05 679.3 836.35 675.45 838.9 675 842.2 L 674.6 860.85 674.45 953.75 Q 676.1 956.65 680.25 958.9 686.35 962.25 694.25 962.25 702.05 962.25 707 958.9 710.85 956.35 711.25 953 L 711.25 951.35 712.95 845 Q 712.9 844.65 712.9 844.35 712.15 839.7 706.05 836.35 Z"
         id="path7" />
      <path
         fill="#3366CC"
         stroke="none"
         d=" M 783.95 1007.6 L 776.5 1007.9 Q 779.75 1008.45 783.95 1007.6 M 711.35 951.6 Q 711.35 951.45 711.25 951.35 L 711.25 953 711.35 951.6 Z"
         id="path9" />
    </g>
    <g
       id="Layer0_0_MEMBER_1_FILL">
      <path
         fill="#000000"
         stroke="none"
         d=" M 1089.25 1197.55 Q 1074.95 1189.5 1056.45 1189.3 1037.9 1189.5 1023.5 1197.65 1009.1 1205.85 1000.9 1219.7 992.65 1233.55 992.45 1250.75 992.65 1268.15 1000.8 1282 1009 1295.75 1023.25 1303.9 1037.55 1311.95 1056.05 1312.2 1074.6 1311.95 1089 1303.8 1103.4 1295.65 1111.55 1281.8 1119.85 1267.95 1120.05 1250.75 1119.85 1233.35 1111.7 1219.5 1103.5 1205.75 1089.25 1197.55 M 1072.25 1222.7 Q 1079.25 1227.1 1083.1 1234.5 1086.95 1241.95 1087.1 1250.75 1087.1 1259.75 1083.4 1267.2 1079.75 1274.5 1072.9 1278.9 1066.15 1283.3 1056.45 1283.4 1047.1 1283.3 1040.25 1278.8 1033.25 1274.35 1029.4 1266.95 1025.5 1259.55 1025.4 1250.75 1025.4 1241.7 1029.05 1234.3 1032.7 1227 1039.6 1222.6 1046.35 1218.2 1056.05 1218.1 1065.4 1218.2 1072.25 1222.7 M 1247.15 1209.9 Q 1239.1 1200.55 1228 1195 1216.85 1189.4 1200.3 1189.3 1182.15 1189.5 1168.3 1197.65 1154.45 1205.95 1146.6 1219.8 1138.65 1233.65 1138.55 1250.75 1138.65 1268.05 1146.6 1281.9 1154.45 1295.75 1168.3 1303.8 1182.05 1311.95 1199.9 1312.2 1217.3 1311.95 1228.55 1306.05 1239.75 1300.25 1248.1 1290.7 L 1228.45 1270.85 Q 1222.55 1276.65 1216.1 1279.95 1209.75 1283.3 1201.4 1283.4 1192.25 1283.3 1185.6 1279 1178.8 1274.6 1175.15 1267.3 1171.5 1259.85 1171.5 1250.75 1171.6 1241.7 1175.15 1234.3 1178.8 1227 1185.25 1222.6 1191.7 1218.2 1200.1 1218.1 1209.75 1218.2 1216.1 1221.3 1222.35 1224.55 1227.6 1229.8 L 1247.15 1209.9 M 965.65 1217.1 Q 958.15 1203.35 946 1196.4 933.85 1189.3 919.8 1189.3 906.9 1189.5 897.95 1194.75 889.05 1200.05 883.05 1208.4 L 883.05 1191.55 849.65 1191.55 849.65 1344.75 883.05 1344.75 883.05 1294.15 Q 888.85 1301.45 897.75 1306.5 906.55 1311.55 919.8 1311.75 934.05 1311.75 946.2 1304.65 958.35 1297.7 965.75 1284.15 973.25 1270.5 973.5 1250.75 973.25 1230.75 965.65 1217.1 M 896.9 1221.75 Q 903.35 1217.65 911.2 1217.65 919.15 1217.65 925.7 1221.75 932.15 1225.8 936.1 1233.1 939.95 1240.45 940.1 1250.3 939.95 1260.5 936.1 1267.95 932.15 1275.35 925.7 1279.3 919.15 1283.4 911.2 1283.4 903.35 1283.4 896.9 1279.3 890.35 1275.25 886.6 1267.95 882.7 1260.6 882.6 1250.85 882.7 1240.65 886.6 1233.25 890.35 1225.8 896.9 1221.75 M 769.95 1037.85 L 769.95 992.5 736.55 992.5 736.55 1110.45 769.95 1110.45 769.95 1065.35 811.2 1065.35 811.2 1110.45 844.6 1110.45 844.6 992.5 811.2 992.5 811.2 1037.85 769.95 1037.85 M 1244.25 1010.85 Q 1236.2 1001.5 1225.1 995.95 1213.95 990.35 1197.4 990.25 1179.25 990.45 1165.4 998.6 1151.55 1006.9 1143.7 1020.75 1135.75 1034.6 1135.65 1051.7 1135.75 1069 1143.7 1082.85 1151.55 1096.7 1165.4 1104.75 1179.15 1112.9 1197 1113.15 1214.4 1112.9 1225.65 1107 1236.85 1101.2 1245.2 1091.65 L 1225.55 1071.8 Q 1219.65 1077.6 1213.2 1080.9 1206.85 1084.25 1198.5 1084.35 1189.35 1084.25 1182.7 1079.95 1175.9 1075.55 1172.25 1068.25 1168.6 1060.8 1168.6 1051.7 1168.7 1042.65 1172.25 1035.25 1175.9 1027.95 1182.35 1023.55 1188.8 1019.15 1197.2 1019.05 1206.85 1019.15 1213.2 1022.25 1219.45 1025.5 1224.7 1030.75 L 1244.25 1010.85 M 973 1039 Q 978.35 1032.55 978.55 1021.95 978.35 1007.95 967.85 1000.35 957.3 992.6 939.25 992.5 L 874.5 992.5 874.5 1110.45 939.05 1110.45 Q 959.65 1110.35 971.25 1101.85 982.75 1093.5 983 1078.35 982.85 1066 976.75 1058.9 970.75 1051.8 959.9 1048.6 967.7 1045.35 973 1039 M 945.15 1027.85 Q 945.15 1033.1 941.6 1036.45 938.2 1039.65 931.1 1039.75 L 907.45 1039.75 907.45 1017.1 931.5 1017.1 Q 938.7 1017.2 941.95 1020.3 945.25 1023.45 945.15 1027.85 M 907.45 1084.25 L 907.45 1060.95 933.05 1060.95 Q 941.6 1061.05 945.4 1064.25 949.25 1067.5 949.15 1072.3 949.15 1077.7 945.4 1080.9 941.75 1084.15 933.9 1084.25 L 907.45 1084.25 M 1091.45 999.4 Q 1078.8 990.45 1059.1 990.25 1041.8 990.45 1028.7 998.75 1015.6 1006.9 1008.3 1020.75 1000.9 1034.6 1000.8 1051.7 1000.9 1070.15 1008.85 1083.9 1016.8 1097.65 1030.65 1105.3 1044.5 1113.05 1062.35 1113.15 1078.35 1113.05 1090.4 1107.25 1102.3 1101.45 1110.55 1091.1 L 1091.45 1074.15 Q 1084.6 1080.6 1077.9 1083.5 1071.15 1086.4 1062.9 1086.3 1051.5 1086.3 1044.1 1080.35 1036.55 1074.55 1034 1063.2 L 1116.05 1063.2 Q 1116.25 1060.8 1116.35 1058.55 1116.5 1056.3 1116.5 1054.4 1116.6 1037.3 1110.35 1022.8 1104.25 1008.3 1091.45 999.4 M 1059.1 1017.1 Q 1069.65 1017.2 1076.1 1024.1 1082.45 1030.85 1083.95 1042.25 L 1033.55 1042.25 Q 1035.6 1030.65 1042.15 1024 1048.7 1017.2 1059.1 1017.1 M 629.15 1061.35 L 629.15 992.5 596.85 992.5 596.85 1110.45 628.3 1110.45 674.3 1041.8 674.3 1110.45 706.6 1110.45 706.6 992.5 675.15 992.5 629.15 1061.35 M 1372.75 1209.9 Q 1364.7 1200.55 1353.6 1195 1342.45 1189.4 1325.9 1189.3 1307.75 1189.5 1293.9 1197.65 1280.05 1205.95 1272.2 1219.8 1264.25 1233.65 1264.15 1250.75 1264.25 1268.05 1272.2 1281.9 1280.05 1295.75 1293.9 1303.8 1307.65 1311.95 1325.5 1312.2 1342.9 1311.95 1354.15 1306.05 1365.35 1300.25 1373.7 1290.7 L 1354.05 1270.85 Q 1348.15 1276.65 1341.7 1279.95 1335.35 1283.3 1327 1283.4 1317.85 1283.3 1311.2 1279 1304.4 1274.6 1300.75 1267.3 1297.1 1259.85 1297.1 1250.75 1297.2 1241.7 1300.75 1234.3 1304.4 1227 1310.85 1222.6 1317.3 1218.2 1325.7 1218.1 1335.35 1218.2 1341.7 1221.3 1347.95 1224.55 1353.2 1229.8 L 1372.75 1209.9 M 1505.2 1191.55 L 1473.75 1191.55 1427.75 1260.4 1427.75 1191.55 1395.45 1191.55 1395.45 1309.5 1426.9 1309.5 1472.9 1240.85 1472.9 1309.5 1505.2 1309.5 1505.2 1191.55 M 1567.45 1260.4 L 1567.45 1191.55 1535.15 1191.55 1535.15 1309.5 1566.6 1309.5 1612.6 1240.85 1612.6 1309.5 1644.9 1309.5 1644.9 1191.55 1613.45 1191.55 1567.45 1260.4 M 1359.2 1021.1 L 1359.2 992.5 1255.35 992.5 1255.35 1021.1 1290.35 1021.1 1290.35 1110.45 1324.2 1110.45 1324.2 1021.1 1359.2 1021.1 M 1409.7 992.5 L 1377.4 992.5 1377.4 1110.45 1408.85 1110.45 1454.85 1041.8 1454.85 1110.45 1487.15 1110.45 1487.15 992.5 1455.7 992.5 1409.7 1061.35 1409.7 992.5 M 1908 992.5 L 1876.55 992.5 1830.55 1061.35 1830.55 992.5 1798.25 992.5 1798.25 1110.45 1829.7 1110.45 1875.7 1041.8 1875.7 1110.45 1908 1110.45 1908 992.5 M 1640.2 1081.9 L 1624.2 1081.9 1624.2 992.5 1590.75 992.5 1590.75 1081.9 1550.5 1081.9 1550.5 992.5 1517.1 992.5 1517.1 1110.45 1608.2 1110.45 1608.2 1138.15 1636.3 1138.15 1640.2 1081.9 M 1768.3 992.5 L 1736.85 992.5 1690.85 1061.35 1690.85 992.5 1658.55 992.5 1658.55 1110.45 1690 1110.45 1736 1041.8 1736 1110.45 1768.3 1110.45 1768.3 992.5 Z"
         id="path12" />
    </g>
  </defs>
  <g
     id="_____1">
    <g
       transform="matrix( 1, 0, 0, 1, 766.55,-243.35) "
       id="g15">
      <use
         xlink:href="#Layer0_0_MEMBER_0_FILL"
         id="use17" />
    </g>
    <g
       transform="matrix( 1, 0, 0, 1, 47.45,47.4) "
       id="g19">
      <use
         xlink:href="#Layer0_0_MEMBER_1_FILL"
         id="use21" />
    </g>
  </g>
</svg>
