<?xml version="1.0" encoding="UTF-8" standalone="no"?>
<!-- Created with Inkscape (http://www.inkscape.org/) -->

<svg
   xmlns:dc="http://purl.org/dc/elements/1.1/"
   xmlns:cc="http://creativecommons.org/ns#"
   xmlns:rdf="http://www.w3.org/1999/02/22-rdf-syntax-ns#"
   xmlns:svg="http://www.w3.org/2000/svg"
   xmlns="http://www.w3.org/2000/svg"
   xmlns:xlink="http://www.w3.org/1999/xlink"
   xmlns:sodipodi="http://sodipodi.sourceforge.net/DTD/sodipodi-0.dtd"
   xmlns:inkscape="http://www.inkscape.org/namespaces/inkscape"
   width="1312"
   height="355"
   viewBox="0 0 1312 355.00001"
   id="svg2"
   version="1.1"
   inkscape:version="0.91 r13725"
   sodipodi:docname="ИР_лого_horizont_title.svg">
  <defs
     id="defs4">
    <g
       id="Layer0_0_MEMBER_0_FILL">
      <path
         id="path7"
         d="m 866.7,759 q 0,-26.5 -20.3,-45.25 Q 826.1,695 797.4,695 l -526.3,0 q -28.65,0 -48.95,18.75 -20.3,18.75 -20.3,45.25 l 0,301.2 q 0,26.5 20.3,45.25 20.3,18.75 48.95,18.75 l 526.3,0 q 28.7,0 49,-18.75 20.3,-18.75 20.3,-45.25 l 0,-301.2 m -192.25,26.15 0,0.1 101.7,0 q 1.2,0.15 2.45,0.4 9.85,2 19.35,10.15 9.55,8.2 13.1,17.7 1.45,3.8 1.6,6.95 0.05,0.75 0,1.45 0,0.05 0,0.15 l -0.25,149.2 q 0.2,1.95 0.15,4.05 -0.1,0.75 -0.15,1.5 -0.95,10.05 -8.2,18.75 -7.8,9.4 -18.35,11.7 -0.95,0.2 -1.9,0.35 -4.2,0.85 -7.45,0.3 l -98.85,0 q -1.85,0.2 -3.2,1.2 l 0,62.05 -108.45,0 0,-192.45 42.2,0 0.05,-0.05 -42.1,-93.5 108.3,0 m -271.65,0.1 108.95,0 -42.1,93.45 42.1,0 0,129.55 -108.95,0 0,-0.3 -110.45,-0.05 q -0.95,0.05 -1.9,0.05 -0.95,0 -1.85,-0.05 -11.6,-0.6 -21.3,-8.95 -10.35,-8.9 -12.5,-21.6 -0.35,-2 -0.4,-3.9 l 1.85,-188.2 109.25,0 -0.7,58.2 -0.1,109.95 q 1.65,3 5.9,5.35 6.05,3.35 13.95,3.35 7.8,0 12.8,-3.35 3.9,-2.55 4.3,-5.9 l 1.15,-62.15 0,-105.45 m 303.25,51.1 q -6.15,-3.3 -13.95,-3.3 -7.9,0 -12.8,3.3 -3.85,2.55 -4.3,5.85 l -0.4,18.65 -0.15,92.9 q 1.65,2.9 5.8,5.15 6.1,3.35 14,3.35 7.8,0 12.75,-3.35 3.85,-2.55 4.25,-5.9 l 0,-1.65 1.7,-106.35 q -0.05,-0.35 -0.05,-0.65 -0.75,-4.65 -6.85,-8 z"
         inkscape:connector-curvature="0"
         style="fill:#ff0000;stroke:none" />
      <path
         id="path9"
         d="m 783.95,1007.6 -7.45,0.3 q 3.25,0.55 7.45,-0.3 m -72.6,-56 q 0,-0.15 -0.1,-0.25 l 0,1.65 0.1,-1.4 z"
         inkscape:connector-curvature="0"
         style="fill:#3366cc;stroke:none" />
    </g>
    <g
       id="Layer0_0_MEMBER_1_FILL">
      <path
         id="path12"
         d="m 1089.25,1197.55 q -14.3,-8.05 -32.8,-8.25 -18.55,0.2 -32.95,8.35 -14.4,8.2 -22.6,22.05 -8.25,13.85 -8.45,31.05 0.2,17.4 8.35,31.25 8.2,13.75 22.45,21.9 14.3,8.05 32.8,8.3 18.55,-0.25 32.95,-8.4 14.4,-8.15 22.55,-22 8.3,-13.85 8.5,-31.05 -0.2,-17.4 -8.35,-31.25 -8.2,-13.75 -22.45,-21.95 m -17,25.15 q 7,4.4 10.85,11.8 3.85,7.45 4,16.25 0,9 -3.7,16.45 -3.65,7.3 -10.5,11.7 -6.75,4.4 -16.45,4.5 -9.35,-0.1 -16.2,-4.6 -7,-4.45 -10.85,-11.85 -3.9,-7.4 -4,-16.2 0,-9.05 3.65,-16.45 3.65,-7.3 10.55,-11.7 6.75,-4.4 16.45,-4.5 9.35,0.1 16.2,4.6 m 174.9,-12.8 q -8.05,-9.35 -19.15,-14.9 -11.15,-5.6 -27.7,-5.7 -18.15,0.2 -32,8.35 -13.85,8.3 -21.7,22.15 -7.95,13.85 -8.05,30.95 0.1,17.3 8.05,31.15 7.85,13.85 21.7,21.9 13.75,8.15 31.6,8.4 17.4,-0.25 28.65,-6.15 11.2,-5.8 19.55,-15.35 l -19.65,-19.85 q -5.9,5.8 -12.35,9.1 -6.35,3.35 -14.7,3.45 -9.15,-0.1 -15.8,-4.4 -6.8,-4.4 -10.45,-11.7 -3.65,-7.45 -3.65,-16.55 0.1,-9.05 3.65,-16.45 3.65,-7.3 10.1,-11.7 6.45,-4.4 14.85,-4.5 9.65,0.1 16,3.2 6.25,3.25 11.5,8.5 l 19.55,-19.9 m -281.5,7.2 q -7.5,-13.75 -19.65,-20.7 -12.15,-7.1 -26.2,-7.1 -12.9,0.2 -21.85,5.45 -8.9,5.3 -14.9,13.65 l 0,-16.85 -33.4,0 0,153.2 33.4,0 0,-50.6 q 5.8,7.3 14.7,12.35 8.8,5.05 22.05,5.25 14.25,0 26.4,-7.1 12.15,-6.95 19.55,-20.5 7.5,-13.65 7.75,-33.4 -0.25,-20 -7.85,-33.65 m -68.75,4.65 q 6.45,-4.1 14.3,-4.1 7.95,0 14.5,4.1 6.45,4.05 10.4,11.35 3.85,7.35 4,17.2 -0.15,10.2 -4,17.65 -3.95,7.4 -10.4,11.35 -6.55,4.1 -14.5,4.1 -7.85,0 -14.3,-4.1 -6.55,-4.05 -10.3,-11.35 -3.9,-7.35 -4,-17.1 0.1,-10.2 4,-17.6 3.75,-7.45 10.3,-11.5 m -126.95,-183.9 0,-45.35 -33.4,0 0,117.95 33.4,0 0,-45.1 41.25,0 0,45.1 33.4,0 0,-117.95 -33.4,0 0,45.35 -41.25,0 m 474.3,-27 q -8.05,-9.35 -19.15,-14.9 -11.15,-5.6 -27.7,-5.7 -18.15,0.2 -32,8.35 -13.85,8.3 -21.7,22.15 -7.95,13.85 -8.05,30.95 0.1,17.3 8.05,31.15 7.85,13.85 21.7,21.9 13.75,8.15 31.6,8.4 17.4,-0.25 28.65,-6.15 11.2,-5.8 19.55,-15.35 l -19.65,-19.85 q -5.9,5.8 -12.35,9.1 -6.35,3.35 -14.7,3.45 -9.15,-0.1 -15.8,-4.4 -6.8,-4.4 -10.45,-11.7 -3.65,-7.45 -3.65,-16.55 0.1,-9.05 3.65,-16.45 3.65,-7.3 10.1,-11.7 6.45,-4.4 14.85,-4.5 9.65,0.1 16,3.2 6.25,3.25 11.5,8.5 l 19.55,-19.9 M 973,1039 q 5.35,-6.45 5.55,-17.05 -0.2,-14 -10.7,-21.6 -10.55,-7.75 -28.6,-7.85 l -64.75,0 0,117.95 64.55,0 q 20.6,-0.1 32.2,-8.6 11.5,-8.35 11.75,-23.5 -0.15,-12.35 -6.25,-19.45 -6,-7.1 -16.85,-10.3 7.8,-3.25 13.1,-9.6 m -27.85,-11.15 q 0,5.25 -3.55,8.6 -3.4,3.2 -10.5,3.3 l -23.65,0 0,-22.65 24.05,0 q 7.2,0.1 10.45,3.2 3.3,3.15 3.2,7.55 m -37.7,56.4 0,-23.3 25.6,0 q 8.55,0.1 12.35,3.3 3.85,3.25 3.75,8.05 0,5.4 -3.75,8.6 -3.65,3.25 -11.5,3.35 l -26.45,0 m 184,-84.85 q -12.65,-8.95 -32.35,-9.15 -17.3,0.2 -30.4,8.5 -13.1,8.15 -20.4,22 -7.4,13.85 -7.5,30.95 0.1,18.45 8.05,32.2 7.95,13.75 21.8,21.4 13.85,7.75 31.7,7.85 16,-0.1 28.05,-5.9 11.9,-5.8 20.15,-16.15 l -19.1,-16.95 q -6.85,6.45 -13.55,9.35 -6.75,2.9 -15,2.8 -11.4,0 -18.8,-5.95 -7.55,-5.8 -10.1,-17.15 l 82.05,0 q 0.2,-2.4 0.3,-4.65 0.15,-2.25 0.15,-4.15 0.1,-17.1 -6.15,-31.6 -6.1,-14.5 -18.9,-23.4 m -32.35,17.7 q 10.55,0.1 17,7 6.35,6.75 7.85,18.15 l -50.4,0 q 2.05,-11.6 8.6,-18.25 6.55,-6.8 16.95,-6.9 m -429.95,44.25 0,-68.85 -32.3,0 0,117.95 31.45,0 46,-68.65 0,68.65 32.3,0 0,-117.95 -31.45,0 -46,68.85 m 743.6,148.55 q -8.05,-9.35 -19.15,-14.9 -11.15,-5.6 -27.7,-5.7 -18.15,0.2 -32,8.35 -13.85,8.3 -21.7,22.15 -7.95,13.85 -8.05,30.95 0.1,17.3 8.05,31.15 7.85,13.85 21.7,21.9 13.75,8.15 31.6,8.4 17.4,-0.25 28.65,-6.15 11.2,-5.8 19.55,-15.35 l -19.65,-19.85 q -5.9,5.8 -12.35,9.1 -6.35,3.35 -14.7,3.45 -9.15,-0.1 -15.8,-4.4 -6.8,-4.4 -10.45,-11.7 -3.65,-7.45 -3.65,-16.55 0.1,-9.05 3.65,-16.45 3.65,-7.3 10.1,-11.7 6.45,-4.4 14.85,-4.5 9.65,0.1 16,3.2 6.25,3.25 11.5,8.5 l 19.55,-19.9 m 132.45,-18.35 -31.45,0 -46,68.85 0,-68.85 -32.3,0 0,117.95 31.45,0 46,-68.65 0,68.65 32.3,0 0,-117.95 m 62.25,68.85 0,-68.85 -32.3,0 0,117.95 31.45,0 46,-68.65 0,68.65 32.3,0 0,-117.95 -31.45,0 -46,68.85 m -208.25,-239.3 0,-28.6 -103.85,0 0,28.6 35,0 0,89.35 33.85,0 0,-89.35 35,0 m 50.5,-28.6 -32.3,0 0,117.95 31.45,0 46,-68.65 0,68.65 32.3,0 0,-117.95 -31.45,0 -46,68.85 0,-68.85 m 498.3,0 -31.45,0 -46,68.85 0,-68.85 -32.3,0 0,117.95 31.45,0 46,-68.65 0,68.65 32.3,0 0,-117.95 m -267.8,89.4 -16,0 0,-89.4 -33.45,0 0,89.4 -40.25,0 0,-89.4 -33.4,0 0,117.95 91.1,0 0,27.7 28.1,0 3.9,-56.25 m 128.1,-89.4 -31.45,0 -46,68.85 0,-68.85 -32.3,0 0,117.95 31.45,0 46,-68.65 0,68.65 32.3,0 0,-117.95 z"
         inkscape:connector-curvature="0"
         style="fill:#000000;stroke:none" />
    </g>
  </defs>
  <sodipodi:namedview
     id="base"
     pagecolor="#ffffff"
     bordercolor="#666666"
     borderopacity="1.0"
     inkscape:pageopacity="0.0"
     inkscape:pageshadow="2"
     inkscape:zoom="0.35"
     inkscape:cx="-176.42857"
     inkscape:cy="520"
     inkscape:document-units="px"
     inkscape:current-layer="layer1"
     showgrid="false"
     units="px"
     inkscape:window-width="1920"
     inkscape:window-height="1018"
     inkscape:window-x="-8"
     inkscape:window-y="-8"
     inkscape:window-maximized="1" />
  <metadata
     id="metadata7">
    <rdf:RDF>
      <cc:Work
         rdf:about="">
        <dc:format>image/svg+xml</dc:format>
        <dc:type
           rdf:resource="http://purl.org/dc/dcmitype/StillImage" />
        <dc:title></dc:title>
      </cc:Work>
    </rdf:RDF>
  </metadata>
  <g
     inkscape:label="Layer 1"
     inkscape:groupmode="layer"
     id="layer1"
     transform="translate(0,-697.36216)">
    <g
       transform="translate(-596.85,-292.38784)"
       id="g19">
      <use
         height="100%"
         width="100%"
         y="0"
         x="0"
         xlink:href="#Layer0_0_MEMBER_1_FILL"
         id="use21" />
    </g>
  </g>
</svg>
